<svg xmlns="http://www.w3.org/2000/svg" viewBox="0 0 1600 820" role="img" aria-labelledby="title desc"><title id="title">Brownfield campus assurance topology</title><desc id="desc">Catalyst Center observes a traditional two-building wired and wireless campus without SDA.</desc><style>.z{fill:#f7fafc;stroke:#94afc4;stroke-width:3}.c{fill:#fff8e7;stroke:#a87318;stroke-width:4}.d{fill:#fff;stroke:#245d8b;stroke-width:4}.w{fill:#f5f1fa;stroke:#76589f;stroke-width:4}.u{fill:#eef8f1;stroke:#2d7b49;stroke-width:3}.l3{stroke:#2d7b49;stroke-width:6;fill:none}.l2{stroke:#286493;stroke-width:6;fill:none}.wifi{stroke:#15828a;stroke-width:4;stroke-dasharray:8 7;fill:none}.m{stroke:#a87318;stroke-width:3;stroke-dasharray:10 8;fill:none}.t{font:700 29px Arial;fill:#17324d}.h{font:700 22px Arial;fill:#17324d}.x{font:700 17px Arial;fill:#17324d}.s{font:15px Arial;fill:#40586d}.ll{font:700 14px Arial;paint-order:stroke;stroke:#fff;stroke-width:7;fill:#40586d}</style><rect width="1600" height="820" fill="#fff"/><text class="t" x="45" y="52">PetroVale campus assurance pilot · traditional network remains in place</text><rect class="c" x="570" y="78" width="460" height="100" rx="8"/><text class="h" x="800" y="120" text-anchor="middle">Cisco Catalyst Center</text><text class="s" x="800" y="151" text-anchor="middle">Inventory · Health · Issues · Device 360 · Client 360 · Path Trace</text><rect class="z" x="45" y="220" width="720" height="520" rx="8"/><text class="h" x="75" y="260">Building 1 · core and local access</text><rect class="z" x="800" y="220" width="755" height="520" rx="8"/><text class="h" x="830" y="260">Building 2 · distribution and access</text>
<defs><g id="sw"><rect class="d" width="150" height="78" rx="8"/><line x1="28" y1="24" x2="122" y2="24" stroke="#245d8b" stroke-width="4"/><g fill="#dceaf4" stroke="#245d8b" stroke-width="2"><rect x="28" y="48" width="18" height="13"/><rect x="55" y="48" width="18" height="13"/><rect x="82" y="48" width="18" height="13"/><rect x="109" y="48" width="18" height="13"/></g></g></defs>
<use href="#sw" x="240" y="315"/><text class="x" x="315" y="420" text-anchor="middle">Core 1</text><use href="#sw" x="455" y="315"/><text class="x" x="530" y="420" text-anchor="middle">Core 2</text><path class="l3" d="M390 354 H455"/><text class="ll" x="422" y="342" text-anchor="middle">OSPF</text><use href="#sw" x="260" y="540"/><text class="x" x="335" y="645" text-anchor="middle">Access 1A</text><use href="#sw" x="480" y="540"/><text class="x" x="555" y="645" text-anchor="middle">Access 1B</text><path class="l2" d="M280 393 L300 540 M350 393 L570 540 M500 393 L370 540 M570 393 L610 540"/><text class="ll" x="450" y="490" text-anchor="middle">802.1Q · STP</text>
<use href="#sw" x="855" y="315"/><text class="x" x="930" y="420" text-anchor="middle">Distribution 1</text><use href="#sw" x="1065" y="315"/><text class="x" x="1140" y="420" text-anchor="middle">Distribution 2</text><path class="l3" d="M605 354 H855 M1005 354 H1065"/><text class="ll" x="730" y="342" text-anchor="middle">EIGRP · redistribution</text><text class="ll" x="1035" y="342" text-anchor="middle">HSRP</text><use href="#sw" x="875" y="540"/><text class="x" x="950" y="645" text-anchor="middle">Access 2A</text><use href="#sw" x="1085" y="540"/><text class="x" x="1160" y="645" text-anchor="middle">Access 2B</text><path class="l2" d="M895 393 L915 540 M965 393 L1175 540 M1105 393 L985 540 M1175 393 L1215 540"/><text class="ll" x="1040" y="490" text-anchor="middle">802.1Q · STP</text>
<rect class="w" x="1305" y="310" width="190" height="85" rx="8"/><text class="x" x="1400" y="344" text-anchor="middle">Catalyst 9800 WLC</text><text class="s" x="1400" y="373" text-anchor="middle">Brownfield wireless</text><path class="l3" d="M1215 354 H1305"/><circle class="w" cx="1350" cy="570" r="42"/><path d="M1326 575 Q1350 545 1374 575 M1335 585 Q1350 566 1365 585" fill="none" stroke="#76589f" stroke-width="4"/><text class="x" x="1350" y="642" text-anchor="middle">AP 2F-21</text><path class="l2" d="M1235 578 H1308"/><rect class="u" x="90" y="660" width="205" height="55" rx="7"/><text class="x" x="192" y="693" text-anchor="middle">Wired sample clients</text><path class="l2" d="M260 578 H190 V660"/><rect class="u" x="1270" y="660" width="230" height="55" rx="7"/><text class="x" x="1385" y="693" text-anchor="middle">Wireless sample clients</text><path class="wifi" d="M1350 612 V660"/><path class="m" d="M650 178 L315 315 M730 178 L930 315 M845 178 L1140 315 M950 178 L1400 310"/><line class="l2" x1="65" y1="785" x2="125" y2="785"/><text class="s" x="135" y="791">Layer 2</text><line class="l3" x1="255" y1="785" x2="315" y2="785"/><text class="s" x="325" y="791">Layer 3</text><line class="wifi" x1="455" y1="785" x2="515" y2="785"/><text class="s" x="525" y="791">Wireless</text><line class="m" x1="680" y1="785" x2="740" y2="785"/><text class="s" x="750" y="791">Assurance telemetry and management</text></svg>
